<svg xmlns="http://www.w3.org/2000/svg" viewBox="0 0 1024 1024" width="1024" height="1024">
  
  <g transform="translate(194.56 246.94967170501587) scale(1.5280639260614228)">
    <path fill="#ffffff" d="M206.79,300.86c-66.91,0-121.34-55.72-121.34-124.21s54.43-124.21,121.34-124.21,121.34,55.72,121.34,124.21-54.43,124.21-121.34,124.21ZM206.79,76.45c-53.67,0-97.34,44.95-97.34,100.21s43.67,100.21,97.34,100.21,97.34-44.95,97.34-100.21-43.67-100.21-97.34-100.21Z"/>
    <path fill="#35b6b0" d="M270.07,52.84c10.35-2.6,101.51-29.92,111.88-33.47,10.37-3.55,12.67,4.06,12.67,7.1v35.49c0,4.56-4.03,5.07-10.37,5.58-6.34.51-33.4,2.54-33.4,2.54,0,0,1.15,53.75,1.15,92.79s-35.71,124.74-130.74,136.4c92.8-49.05,107.82-94.17,108.09-145.96.26-48.68-1.27-79.56-1.27-79.56,0,0-31.52,2.42-40.74,2.93-9.21.51-13.25-6.08-16.7-10.14s-4.61-12.68-.58-13.69Z"/>
    <path fill="#35b6b0" d="M142.55,52.84c-10.35-2.6-101.51-29.92-111.88-33.47-10.37-3.55-12.67,4.06-12.67,7.1s0,30.93,0,35.49,4.03,5.07,10.37,5.58,33.4,2.54,33.4,2.54c0,0-1.15,53.75-1.15,92.79,0,39.04,35.71,124.74,130.74,136.4-92.8-49.05-107.82-94.17-108.09-145.96-.26-48.68,1.27-79.56,1.27-79.56,0,0,31.52,2.42,40.74,2.93,9.21.51,13.25-6.08,16.7-10.14s4.61-12.68.58-13.69Z"/>
    <path fill="#ffffff" d="M204.28,184.86c6.95,0,27.46.66,27.46,9.93s-12.46,23.82-22.28,23.82c-.22,7.94,5.25,20.85,17.24,20.85s16.95-9.26,17.61-10.92,3.64-1.99,5.96-.33,2.65,3.97-2.65,9.6-11.07,10.59-20.92,10.59-18.45-6.62-22.42-11.58c-3.31,5.29-11.25,11.91-21.18,11.58s-18.2-3.97-25.81-16.21c-1.32-2.65,4.3-6.95,6.29-4.96s6.95,12.9,17.87,11.91c10.92-.99,17.87-6.95,17.54-20.85-5.96-2.32-21.18-8.93-21.18-21.18s14.56-12.24,26.47-12.24Z"/>
    <ellipse fill="#ffffff" cx="153.07" cy="151.58" rx="14.89" ry="16.54"/>
    <path fill="#ffffff" d="M255.23,142.83c7.28,0,19.85,7.94,19.85,12.9s-2.65,4.3-4.96,4.3-5.29-8.59-14.89-8.59-11.58,8.62-11.58,8.62c0,0-7.94,1.63-7.28-3.67.66-5.29,8.6-13.24,13.24-13.57s5.63,0,5.63,0Z"/>
    <path fill="#ffffff" d="M198.54,277.87h14.34c10.18,0,15.53,4.36,15.53,13.89l-17.19,38.71c-1.94,3.41-7.24,3.21-8.87-.35l-17.28-37.71c-1.91-9.86,2.75-14.54,13.48-14.54Z"/>
  </g>
</svg>